# xmcd
#
# Track frame offsets: 
#        150
#        13640
#        26647
#        39123
#        51687
#        64833
#        75189
#        87750
#
# Disc length: 1379 seconds
#
# Revision: 0
# Processed by: cddbd v1.5.2PL0 Copyright (c) Steve Scherf et al.
# Submitted via: ExactAudioCopy v0.99pb4
#
DISCID=56056108
DTITLE=Various Artist - Motown Legends, Vol. 3
DYEAR=1994
DGENRE=Motown
TTITLE0=Jr. Walker and The All Stars - Shotgun
TTITLE1=Diana Ross and The Supremes - Stop! In the Name of Love
TTITLE2=Gladys Knight and The Pips - I Heard It Through the Grapevine
TTITLE3=Smokey Robinson and The Miracles - I Second That Emotion
TTITLE4=Stevie Wonder - Uptight (Everything's Alright)
TTITLE5=Marvin Gaye and Tammi Terrell - Ain't Nothing Like the Real Thin
TTITLE5=g
TTITLE6=The Temptations - I Wish It Would Rain
TTITLE7=Diana Ross and The Supremes - Someday We'll Be Together
EXTD=
EXTT0=
EXTT1=
EXTT2=
EXTT3=
EXTT4=
EXTT5=
EXTT6=
EXTT7=
PLAYORDER=
